<?xml version="1.0" encoding="UTF-8"?>
<svg xmlns="http://www.w3.org/2000/svg" width="150" height="150" viewBox="0 0 150 150" fill="none">
  <rect width="150" height="150" fill="none"></rect>
  <path d="M28.7078 42.1178H31.4277L31.3526 35.3706L31.3826 35.3556L35.6203 42.1178H38.0848V30.9977H35.3649L35.4851 37.9553L35.455 37.9853L31.1572 30.9977H28.7078V42.1178Z" fill="#171717"></path>
  <path d="M46.1212 42.1178H48.9614V30.9977H46.1212V42.1178ZM47.5488 29.1493L48.2401 30.0209H50.6444L48.3903 27.5264H46.7674L44.4231 30.0209H46.8576L47.5488 29.1493Z" fill="#171717"></path>
  <path d="M56.9896 42.1178H59.6043L59.5141 33.7927L59.5442 33.7627L61.9185 42.1178H63.7969L66.1712 33.7627L66.2013 33.7927L66.1111 42.1178H68.7259V30.9977H65.0592L62.8803 38.3159H62.8502L60.6412 30.9977H56.9896V42.1178Z" fill="#171717"></path>
  <path d="M76.751 42.1178H82.9272V39.6233H79.4709V37.7148H82.822V35.2203H79.4709V33.4922H82.9272V30.9977H76.751V42.1178Z" fill="#171717"></path>
  <path d="M97.8691 34.2436C97.8391 33.6124 97.794 32.861 97.1328 32.0496C96.4115 31.193 95.2243 30.7873 94.1273 30.7873C92.2639 30.7873 90.2353 31.9744 90.2353 34.0632C90.2353 36.152 92.1738 36.9334 92.9552 37.249C94.6683 37.9703 95.1341 38.1506 95.1341 38.887C95.1341 39.3979 94.7284 39.9539 94.0522 39.9539C93.6915 39.9539 92.8951 39.7285 92.8951 38.4362H90.07V38.7968C90.07 40.2244 90.8664 42.3282 94.0822 42.3282C97.0276 42.3282 97.9593 40.54 97.9593 38.917C97.9593 37.6247 97.4333 36.6629 95.3596 35.7312C93.3609 34.8296 93.0604 34.6944 93.0604 34.0332C93.0604 33.5072 93.5413 33.1616 94.0372 33.1616C94.9087 33.1616 94.9989 33.8679 95.059 34.2436H97.8691Z" fill="#171717"></path>
  <path d="M27.9414 51.034L31.6531 62.1542H34.5835L38.3102 51.034H35.3799L33.1258 58.8332H33.0958L30.8567 51.034H27.9414Z" fill="#171717"></path>
  <path d="M45.5636 62.1542H48.4037V51.034H45.5636V62.1542Z" fill="#171717"></path>
  <path d="M56.5071 62.1542H62.6382V59.6597H59.3472V51.034H56.5071V62.1542Z" fill="#171717"></path>
  <path d="M69.8408 62.1542H75.9719V59.6597H72.681V51.034H69.8408V62.1542Z" fill="#171717"></path>
  <path d="M83.0994 62.1542H89.2756V59.6597H85.8194V57.7512H89.1704V55.2567H85.8194V53.5285H89.2756V51.034H83.0994V62.1542Z" fill="#171717"></path>
  <path d="M28.5575 82.1905H32.4496C36.6722 82.1905 38.175 79.6359 38.175 76.6004C38.175 75.3832 37.9195 74.196 37.1531 73.1441C35.7105 71.0703 33.4865 71.0703 32.2392 71.0703H28.5575V82.1905ZM31.3977 73.5649H32.6299C33.8922 73.5649 34.4632 74.0908 34.7938 74.5867C35.1996 75.2179 35.3348 76.0143 35.3348 76.6455C35.3348 78.2233 34.7337 79.696 32.6149 79.696H31.3977V73.5649Z" fill="#171717"></path>
  <path d="M48.5316 71.0703H45.9168V73.625H47.104V74.1359C47.104 74.3012 47.0138 74.7069 46.4578 74.7069H45.9168V76.0444H46.9988C47.5247 76.0444 48.5316 75.7138 48.5316 74.2261V71.0703Z" fill="#171717"></path>
  <path d="M63.235 80.5826L63.776 82.1905H66.8566L62.4386 71.0703H60.1995L55.7364 82.1905H58.787L59.373 80.5826H63.235ZM61.2965 74.5266H61.3416L62.4837 78.3285H60.1544L61.2965 74.5266Z" fill="#171717"></path>
  <path d="M74.0068 82.1905H76.7267V78.599H76.7567L79.3264 82.1905H82.5723L79.5518 78.4036C81.6556 78.058 82.3168 76.1796 82.3168 74.9023C82.3168 73.7602 81.866 72.5881 80.9494 71.8668C80.228 71.3108 79.4767 71.0703 77.5231 71.0703H74.0068V82.1905ZM76.7267 73.5649H77.7636C78.8606 73.5649 79.5969 74.0608 79.5969 75.0676C79.5969 75.6086 79.4016 76.6605 77.7335 76.6605H76.7267V73.5649Z" fill="#171717"></path>
  <path d="M91.1727 82.1905H94.0129V73.5649H96.1918V71.0703H88.9787V73.5649H91.1727V82.1905Z" fill="#171717"></path>
  <path d="M121.312 75.6537L120.5 77.472L119.193 76.1496C119.674 75.8039 120.726 75.0526 120.726 73.5949C120.726 72.0922 119.523 70.86 117.81 70.86C116.097 70.86 114.73 72.1072 114.73 73.7302C114.73 74.5266 115 75.3381 115.782 76.1345C114.985 76.6755 113.723 77.5321 113.723 79.1851C113.723 80.9883 115.346 82.4159 117.435 82.4159C119.223 82.4159 120.335 81.4241 120.756 81.0635L122.063 82.4159L123.761 80.7479L122.243 79.1851C122.604 78.7192 122.874 78.2233 123.085 77.7124L123.941 75.6537H121.312ZM119.088 79.4255C118.862 79.681 118.517 80.0266 117.735 80.0266C117.059 80.0266 116.458 79.6359 116.458 78.9296C116.458 78.3135 116.954 77.9228 117.314 77.6373L119.088 79.4255ZM117.78 74.8121C117.525 74.5416 117.149 74.1359 117.149 73.61C117.149 73.1141 117.495 72.8736 117.825 72.8736C118.246 72.8736 118.471 73.1892 118.471 73.5799C118.471 74.1209 118.111 74.4815 117.78 74.8121Z" fill="#171717"></path>
  <path d="M28.5575 102.227H32.4496C36.6722 102.227 38.175 99.6722 38.175 96.6367C38.175 95.4195 37.9195 94.2324 37.1531 93.1805C35.7105 91.1067 33.4865 91.1067 32.2392 91.1067H28.5575V102.227ZM31.3977 93.6012H32.6299C33.8922 93.6012 34.4632 94.1272 34.7938 94.6231C35.1996 95.2542 35.3348 96.0507 35.3348 96.6818C35.3348 98.2597 34.7337 99.7323 32.6149 99.7323H31.3977V93.6012Z" fill="#171717"></path>
  <path d="M48.5316 91.1067H45.9168V93.6613H47.104V94.1722C47.104 94.3376 47.0138 94.7433 46.4578 94.7433H45.9168V96.0807H46.9988C47.5247 96.0807 48.5316 95.7501 48.5316 94.2624V91.1067Z" fill="#171717"></path>
  <path d="M56.608 102.227H59.4482V97.7788H63.0848V102.227H65.9249V91.1067H63.0848V95.2843H59.4482V91.1067H56.608V102.227Z" fill="#171717"></path>
  <path d="M73.9481 102.227H76.7882V91.1067H73.9481V102.227Z" fill="#171717"></path>
  <path d="M91.9844 94.3526C91.9544 93.7214 91.9093 92.9701 91.2481 92.1586C90.5268 91.302 89.3396 90.8963 88.2426 90.8963C86.3792 90.8963 84.3506 92.0835 84.3506 94.1722C84.3506 96.261 86.2891 97.0425 87.0705 97.358C88.7836 98.0793 89.2495 98.2597 89.2495 98.996C89.2495 99.5069 88.8437 100.063 88.1675 100.063C87.8068 100.063 87.0104 99.8375 87.0104 98.5452H84.1853V98.9058C84.1853 100.333 84.9817 102.437 88.1975 102.437C91.1429 102.437 92.0746 100.649 92.0746 99.0261C92.0746 97.7337 91.5486 96.772 89.4749 95.8403C87.4762 94.9386 87.1757 94.8034 87.1757 94.1422C87.1757 93.6162 87.6566 93.2706 88.1525 93.2706C89.024 93.2706 89.1142 93.9769 89.1743 94.3526H91.9844Z" fill="#171717"></path>
  <path d="M100.779 102.227H103.619V93.6012H105.798V91.1067H98.585V93.6012H100.779V102.227Z" fill="#171717"></path>
  <path d="M116.167 96.6668H111.945V99.1162H116.167V96.6668Z" fill="#171717"></path>
  <path d="M28.6627 114.464C28.3321 115.276 28.2269 116.102 28.2269 116.838C28.2269 119.694 30.5712 122.474 34.0725 122.474C37.5288 122.474 39.9632 119.799 39.9632 116.703C39.9632 113.607 37.5138 110.933 34.0876 110.933C30.9769 110.933 29.2488 113.021 28.6627 114.464ZM31.0671 116.673C31.0671 115.11 32.134 113.427 34.1026 113.427C36.1463 113.427 37.1231 115.276 37.1231 116.718C37.1231 118.146 36.1463 119.979 34.1326 119.979C32.2242 119.979 31.0671 118.386 31.0671 116.673Z" fill="#171717"></path>
  <path d="M47.5007 122.263H50.3408V111.143H47.5007V122.263Z" fill="#171717"></path>
  <path d="M58.369 122.263H61.089V118.672H61.119L63.6887 122.263H66.9346L63.9141 118.476C66.0179 118.131 66.6791 116.252 66.6791 114.975C66.6791 113.833 66.2283 112.661 65.3116 111.939C64.5903 111.383 63.8389 111.143 61.8854 111.143H58.369V122.263ZM61.089 113.638H62.1258C63.2228 113.638 63.9592 114.133 63.9592 115.14C63.9592 115.681 63.7638 116.733 62.0958 116.733H61.089V113.638Z" fill="#171717"></path>
  <path d="M74.1975 122.263H80.3737V119.769H76.9175V117.86H80.2686V115.366H76.9175V113.638H80.3737V111.143H74.1975V122.263Z" fill="#171717"></path>
</svg>
