<?xml version="1.0" encoding="UTF-8"?>
<svg xmlns="http://www.w3.org/2000/svg" xmlns:xlink="http://www.w3.org/1999/xlink" version="1.1" viewBox="0 0 200 30">
  <g>
    <path d="M117.58,29.23c7.86,0,14.23-6.37,14.23-14.23c0-7.86-6.37-14.23-14.23-14.23c-7.86,0-14.23,6.37-14.23,14.23    C103.35,22.86,109.72,29.23,117.58,29.23"></path>
    <path d="M108.04,0.77c-7.86,0-14.23,6.37-14.23,14.23c0,7.86,6.37,14.23,14.23,14.23"></path>
    <path d="M93.7,2.74c-4.19,2.48-7,7.04-7,12.26c0,5.34,2.95,10,7.3,12.43"></path>
    <path d="M127.47,0.77c7.86,0,14.23,6.37,14.23,14.23c0,7.86-6.37,14.23-14.23,14.23"></path>
    <path d="M141.81,2.74c4.19,2.48,7,7.04,7,12.26c0,5.34-2.94,10-7.3,12.43"></path>
    <path d="M44.81,2.76h-5.29v23.73h2.75v-7.83h3.25l4.24,7.83h3.02l-4.51-8.37c3.56-1.32,4.2-4.64,4.2-7.39    C52.47,7.2,51.46,2.76,44.81,2.76 M44.81,16.09h-2.54V5.31h2.54c4.31,0,4.92,2.41,4.92,5.42C49.73,13.75,49.12,15.95,44.81,16.09     M64.85,2.76h-3.02l-6.78,23.73h2.78l1.22-4.58h8.54l1.25,4.58h2.78L64.85,2.76L64.85,2.76z M66.91,19.37h-7.19l3.59-12.44    L66.91,19.37L66.91,19.37z M70.95,2.76l6.31,15.93v7.8H80v-7.8l6.3-15.93h-2.78C81.97,6.66,80.2,11,78.64,15L73.76,2.76H70.95    L70.95,2.76z"></path>
    <path d="M186.45,2.98v23.73h10.43v-2.54h-7.69v-7.49h6.1v-2.54h-6.1V5.52h7.45V2.98H186.45L186.45,2.98z M180.53,2.98v17.53    l-8.56-17.53h-2.68v23.73h2.75V9.25l8.56,17.46h2.64V2.98H180.53L180.53,2.98z M163.29,2.98v17.53l-8.43-17.53h-2.68v23.73h2.75    V9.25l8.43,17.46H166V2.98H163.29L163.29,2.98z"></path>
    <path d="M21.19,2.8L14.3,26.91h2.82l1.24-4.65h8.68l1.27,4.65h2.82L24.25,2.8H21.19L21.19,2.8z M22.7,7.04l3.65,12.64h-7.3    L22.7,7.04L22.7,7.04z M1,2.8v24.11h10.71v-2.72H3.76V2.8H1L1,2.8z"></path>
  </g>
</svg>
